# xmcd CD database file
#
# Track frame offsets:
#	150
#	22567
#	46670
#	79950
#	111142
#	130410
#	158605
#	181130
#
# Disc length: 2559 seconds
#
# Revision: 0
# Processed by: cddbd v1.4PL0 Copyright (c) Steve Scherf et al.
# Submitted via: CDex 1.50Beta7
#
DISCID=5109fd08
DTITLE=Binder-Juhász - Xmas Song
DYEAR=1993
DGENRE=Jazz
TTITLE0=Virágút
TTITLE1=Karácsonyi ének
TTITLE2=Talált hangok
TTITLE3=Táncdallamok
TTITLE4=My Lord
TTITLE5=Új dal
TTITLE6=Bilal dal
TTITLE7=Utolsó dal
EXTD=YEAR: 1993
EXTT0=
EXTT1=
EXTT2=
EXTT3=
EXTT4=
EXTT5=
EXTT6=
EXTT7=
PLAYORDER=
